<svg xmlns="http://www.w3.org/2000/svg" xmlns:xlink="http://www.w3.org/1999/xlink" width="551" height="414" overflow="hidden" xml:space="preserve"><defs><clipPath id="clip0"><rect width="551" height="414" x="87" y="202"/></clipPath><linearGradient id="fill1" x1="202.523" x2="202.523" y1="436.119" y2="616" gradientUnits="userSpaceOnUse" spreadMethod="reflect"><stop offset="0" stop-color="#B7CCE4"/><stop offset=".5" stop-color="#B7CCE4"/><stop offset=".53" stop-color="#E6B9B8"/><stop offset="1" stop-color="#E6B9B8"/></linearGradient><linearGradient id="fill2" x1="427.375" x2="607.257" y1="526.059" y2="526.059" gradientUnits="userSpaceOnUse" spreadMethod="reflect"><stop offset="0" stop-color="#B7CCE4"/><stop offset=".5" stop-color="#B7CCE4"/><stop offset=".53" stop-color="#E6B9B8"/><stop offset="1" stop-color="#E6B9B8"/></linearGradient></defs><g clip-path="url(#clip0)" transform="translate(-87 -202)"><text fill="#404040" font-family="Roboto,Roboto_MSFontService,sans-serif" font-size="825" font-weight="400" transform="matrix(0.272548 0 0 0.272547 134.989 385)">Alpa</text><path fill="none" fill-rule="evenodd" stroke="#B7CCE4" stroke-miterlimit="8" stroke-width="4.997" d="M292.464 526.059 427.375 526.059"/><path fill="url(#fill1)" fill-rule="evenodd" d="M112.582 466.099C112.582 449.542 126.005 436.119 142.563 436.119L262.483 436.119C279.041 436.119 292.464 449.542 292.464 466.099L292.464 586.02C292.464 602.577 279.041 616 262.483 616L142.563 616C126.005 616 112.582 602.577 112.582 586.02Z"/><path fill="url(#fill2)" fill-rule="evenodd" d="M427.375 466.099C427.375 449.542 440.798 436.119 457.356 436.119L577.277 436.119C593.834 436.119 607.257 449.542 607.257 466.099L607.257 586.02C607.257 602.577 593.834 616 577.277 616L457.356 616C440.798 616 427.375 602.577 427.375 586.02Z"/><path fill="#E6B9B8" d="M517.316 436.119 562.287 436.119 562.287 616 517.316 616Z"/><path fill="#E6B9B8" d="M112.582 526.059 292.464 526.059 292.464 586.292 112.582 586.292Z"/></g></svg>